<svg xmlns="http://www.w3.org/2000/svg" viewBox="0 0 64 64">
  <defs>
    <linearGradient id="bg" x1="10" y1="8" x2="54" y2="58" gradientUnits="userSpaceOnUse">
      <stop stop-color="#0f9f9a"/>
      <stop offset="1" stop-color="#12324a"/>
    </linearGradient>
    <linearGradient id="coin" x1="22" y1="16" x2="43" y2="44" gradientUnits="userSpaceOnUse">
      <stop stop-color="#fbbf24"/>
      <stop offset="1" stop-color="#f59e0b"/>
    </linearGradient>
  </defs>
  <rect width="64" height="64" rx="18" fill="url(#bg)"/>
  <path d="M18 43c0-9.4 6.5-16 15.4-16H46c1.7 0 3 1.3 3 3v13c0 1.7-1.3 3-3 3H21c-1.7 0-3-1.3-3-3Z" fill="#fff" opacity=".95"/>
  <circle cx="34" cy="28" r="12" fill="url(#coin)" stroke="#fff" stroke-width="3"/>
  <path d="M34 20v16M29 25.5c.9-1.5 2.8-2.4 5-2.4 2.8 0 4.8 1.3 4.8 3.2 0 4.5-9.6 1.7-9.6 6.1 0 1.9 2 3.2 4.8 3.2 2.3 0 4.2-.9 5.1-2.5" fill="none" stroke="#12324a" stroke-linecap="round" stroke-linejoin="round" stroke-width="3"/>
  <path d="M24 43h20" stroke="#0f9f9a" stroke-linecap="round" stroke-width="4"/>
</svg>
